<svg data-v-0dd9719b="" version="1.0" xmlns="http://www.w3.org/2000/svg" xmlns:xlink="http://www.w3.org/1999/xlink" width="100%" height="100%" viewBox="0 0 340.000000 250.000000" preserveAspectRatio="xMidYMid meet" color-interpolation-filters="sRGB" style="margin: auto;"> <rect data-v-0dd9719b="" x="0" y="0" width="100%" height="100%" fill="#fff" fill-opacity="1" class="background"></rect> <rect data-v-0dd9719b="" x="0" y="0" width="100%" height="100%" fill="url(#watermark)" fill-opacity="1" class="watermarklayer"></rect> <g data-v-0dd9719b="" fill="#f46606" class="icon-text-wrapper icon-svg-group iconsvg" transform="translate(56.821617126464844,92.89229583740234)"><g class="iconsvg-imagesvg" transform="translate(0,0)"><g><rect fill="#f46606" fill-opacity="0" stroke-width="2" x="0" y="0" width="58" height="64.21540948395169" class="image-rect"></rect> <svg x="0" y="0" width="58" height="64.21540948395169" filtersec="colorsb2136543144" class="image-svg-svg primary" style="overflow: visible;"><svg xmlns="http://www.w3.org/2000/svg" viewBox="-0.27249908447265625 9.999549865722656 863.4775390625 956.0090942382812"><path fill="#F46606" d="M678.45 529.18c-58.66-11.22-97.12-67.87-85.89-126.53l10.73-56.06c28.76-150.33-65.64-300.34-215.61-330.93C234.87-15.5 86.52 85.2 59.08 238.71c-26.94 150.66 77.63 293.78 227.95 322.55l56.06 10.73c58.66 11.22 97.11 67.87 85.89 126.53-22.94 119.87 52.54 239.86 172.29 263.34 119.87 23.5 235.88-55.24 258.3-175.32 22.4-119.98-61.26-234.42-181.12-257.36z"></path><path fill="#444444" d="M44.87 702.89c-60.19 60.19-60.19 157.78 0 217.97 60.18 60.19 157.77 60.19 217.96 0 60.18-60.19 60.18-157.77 0-217.97-60.19-60.18-157.78-60.18-217.96 0z"></path></svg></svg> <!----></g></g> <g transform="translate(59,9.108989715576172)"><g data-gra="path-name" fill-rule="" class="tp-name iconsvg-namesvg" transform="translate(0,0)"><g transform="scale(1)"><g><path d="M30.81-19.79L30.81-19.79 13.75-19.79 13.75-18.83Q13.75-18.1 12.98-18.1L12.98-18.1 9.96-18.1 9.96-16.2Q11.32-14.54 13.81-11.06L13.81-11.06Q14.18-10.36 14.11-10.04 14.04-9.73 13.58-9.06L13.58-9.06Q12.82-8 12.24-8.05 11.65-8.1 11.09-9.26L11.09-9.26Q10.92-9.6 10.54-10.29 10.16-10.99 9.96-11.36L9.96-11.36 9.96 1.06Q9.96 2.92 8.1 2.92L8.1 2.92Q6.18 2.92 6.18 1.06L6.18 1.06 6.18-10.03Q5.18-7.11 4.15-5.18L4.15-5.18Q3.62-4.35 3.2-4.1 2.79-3.85 2.41-4.15 2.03-4.45 1.59-5.35L1.59-5.35Q0.93-6.71 1.69-7.84L1.69-7.84Q4.52-12.32 5.81-18.1L5.81-18.1 3.69-18.1Q1.79-18.1 1.79-19.96 1.79-21.81 3.69-21.81L3.69-21.81 6.18-21.81 6.18-26.93Q6.18-28.79 8.1-28.79L8.1-28.79Q9.96-28.79 9.96-26.93L9.96-26.93 9.96-21.81 13.68-21.81 13.68-22.84Q13.68-23.64 14.44-23.64L14.44-23.64 21.05-23.64 21.05-26.76Q21.05-28.75 23.04-28.75L23.04-28.75Q25.07-28.75 25.07-26.76L25.07-26.76 25.07-23.64 30.81-23.64Q32.71-23.64 32.71-21.71 32.71-19.79 30.81-19.79ZM28.82-14.71L28.82-2.32Q28.82-2.16 28.82-1.94 28.82-1.73 28.8-1.61 28.79-1.49 28.8-1.36 28.82-1.23 28.84-1.16 28.85-1.1 28.9-1.03 28.95-0.96 29.04-0.93 29.12-0.9 29.25-0.9L29.25-0.9 29.75-0.9Q30.15-0.9 30.23-1.11 30.31-1.33 30.38-2.09L30.38-2.09Q30.41-2.42 30.48-3.29L30.48-3.29Q30.51-4.58 30.93-5.11 31.34-5.64 32.31-5.11L32.31-5.11Q33.27-4.62 33.2-3.05L33.2-3.05Q33.14-1.39 33.05-0.7 32.97 0 32.69 0.8 32.41 1.59 31.81 2.09L31.81 2.09Q31.08 2.66 29.82 2.66L29.82 2.66 28.09 2.66Q26.63 2.66 25.73 1.76L25.73 1.76Q24.94 0.93 24.94-2.22L24.94-2.22 24.94-12.38Q24.94-13.18 24.11-13.18L24.11-13.18 21.75-13.18Q20.95-13.18 20.95-12.38L20.95-12.38 20.95-10.79Q20.95-2.69 16.4 1.49L16.4 1.49Q14.41 3.09 13.15 1.59L13.15 1.59Q11.79-0.03 14.11-1.93L14.11-1.93Q15.87-3.79 16.47-6.01 17.07-8.23 17.07-10.89L17.07-10.89 17.07-14.71Q17.07-15.71 17.68-16.32 18.29-16.93 19.29-16.93L19.29-16.93 26.63-16.93Q27.63-16.93 28.22-16.32 28.82-15.71 28.82-14.71L28.82-14.71ZM40.71-18.06L40.71-18.06Q39.98-13.65 39.05-11.16L39.05-11.16Q38.42-9.7 36.76-10.36L36.76-10.36Q34.93-11.09 35.66-12.78L35.66-12.78Q36.66-15.34 37.19-18.56L37.19-18.56Q37.49-20.52 39.35-20.05L39.35-20.05Q40.94-19.66 40.71-18.06ZM41.87-17.46L41.87-17.46 41.87-26.26Q41.87-28.22 43.86-28.22L43.86-28.22Q45.82-28.22 45.82-26.26L45.82-26.26 45.82-18.79 47.21-19.39Q47.75-19.62 48.23-19.42 48.71-19.22 48.91-18.69L48.91-18.69Q50.2-15.51 50.87-12.52L50.87-12.52Q51-11.79 50.73-11.39 50.47-10.99 49.74-10.66L49.74-10.66Q48.71-10.16 48.13-10.34 47.55-10.53 47.35-11.59L47.35-11.59Q46.92-13.78 45.82-17.13L45.82-17.13Q45.79-11.42 44.72-6.92 43.66-2.42 40.54 1.1L40.54 1.1Q38.65 2.96 37.19 1.36 35.73-0.23 37.69-2.19L37.69-2.19Q40.21-5.21 41.04-8.96 41.87-12.72 41.87-17.46ZM64.85-26.36L64.85-26.36 64.85 0.56Q64.85 2.59 62.82 2.59L62.82 2.59Q60.83 2.59 60.83 0.56L60.83 0.56 60.83-11.65 59.23-10.79Q58.57-10.46 58.11-10.59 57.64-10.72 57.51-11.29L57.51-11.29Q56.81-13.95 55.12-17.53L55.12-17.53 55.12-1.23Q55.12 0.73 53.19 0.73L53.19 0.73Q51.2 0.73 51.2-1.23L51.2-1.23 51.2-25.53Q51.2-27.46 53.19-27.46L53.19-27.46Q55.12-27.46 55.12-25.53L55.12-25.53 55.12-18.89 56.45-19.56Q57.61-20.12 58.17-18.99L58.17-18.99Q59.93-15.57 60.83-12.68L60.83-12.68 60.83-26.36Q60.83-28.36 62.82-28.36L62.82-28.36Q64.85-28.36 64.85-26.36ZM97.19-18.66L97.19-18.66 83.27-18.66Q82.28-18.66 81.66-19.27 81.05-19.89 81.05-20.88L81.05-20.88 81.05-25.53Q81.05-27.33 82.84-27.33L82.84-27.33Q84.67-27.33 84.67-25.53L84.67-25.53 84.67-23.01Q84.67-22.21 85.46-22.21L85.46-22.21 88.19-22.21 88.19-26.93Q88.19-28.75 90.08-28.75L90.08-28.75Q91.91-28.75 91.91-26.93L91.91-26.93 91.91-22.21 94.79-22.21Q95.59-22.21 95.59-23.01L95.59-23.01 95.59-25.47Q95.59-27.33 97.52-27.33L97.52-27.33Q99.38-27.33 99.38-25.47L99.38-25.47 99.38-20.88Q99.38-19.89 98.78-19.27 98.18-18.66 97.19-18.66ZM71.42-26.86L71.42-26.86 77.6-26.86Q79.46-26.86 79.46-25L79.46-25Q79.46-23.08 77.6-23.08L77.6-23.08 76.33-23.08 76.33-17.1 76.9-17.1Q78.76-17.1 78.76-15.27L78.76-15.27Q78.76-13.38 76.9-13.38L76.9-13.38 76.33-13.38 76.33-6.01 77.4-6.28Q79.29-6.77 79.55-4.81L79.55-4.81Q79.75-3.15 78.16-2.69L78.16-2.69Q77.2-2.42 75.11-1.83 73.01-1.23 71.98-0.96L71.98-0.96Q70.06-0.43 69.73-2.42L69.73-2.42Q69.39-4.25 71.15-4.68L71.15-4.68Q71.42-4.75 71.95-4.9 72.48-5.05 72.68-5.08L72.68-5.08 72.68-13.38 71.65-13.38Q69.79-13.38 69.79-15.27L69.79-15.27Q69.79-17.1 71.65-17.1L71.65-17.1 72.68-17.1 72.68-23.08 71.42-23.08Q69.56-23.08 69.56-25L69.56-25Q69.56-26.86 71.42-26.86ZM81.61-16.93L81.61-16.93 98.68-16.93Q100.47-16.93 100.47-15.14L100.47-15.14Q100.47-13.28 98.68-13.28L98.68-13.28 91.91-13.28Q91.74-12.82 91.47-12.05 91.21-11.29 91.14-11.12L91.14-11.12 97.88-11.12Q98.88-11.12 99.49-10.51 100.11-9.89 100.11-8.9L100.11-8.9 100.11-0.76Q100.11 1.56 98.98 2.32L98.98 2.32Q98.51 2.69 97.65 2.92L97.65 2.92Q96.79 2.99 96.06 2.52 95.33 2.06 95.03 1.23L95.03 1.23Q94.73 0.46 95.01-0.02 95.29-0.5 96.12-0.46L96.12-0.46Q96.49-0.5 96.49-0.86L96.49-0.86 96.49-6.91Q96.49-7.7 95.69-7.7L95.69-7.7 94.43-7.7 94.43 1.06Q94.43 2.66 92.84 2.66L92.84 2.66Q91.21 2.66 91.21 1.06L91.21 1.06 91.21-7.7 89.28-7.7 89.28 1.06Q89.28 2.66 87.69 2.66 86.1 2.66 86.1 1.06L86.1 1.06 86.1-7.7 85-7.7Q84.17-7.7 84.17-6.91L84.17-6.91 84.17 1.16Q84.17 2.96 82.38 2.96 80.58 2.96 80.58 1.16L80.58 1.16 80.58-8.9Q80.58-9.89 81.18-10.51 81.78-11.12 82.78-11.12L82.78-11.12 87.52-11.12Q87.56-11.36 87.71-12.1 87.86-12.85 87.92-13.28L87.92-13.28 81.61-13.28Q79.79-13.28 79.79-15.14L79.79-15.14Q79.79-16.93 81.61-16.93ZM107.64-1.89L107.64-1.89Q108.91-2.26 111.35-3.02 113.79-3.79 114.09-3.88L114.09-3.88Q115.55-4.35 115.85-2.82L115.85-2.82Q116.11-1.59 114.95-1.13L114.95-1.13Q113.19-0.37 108.94 1.26L108.94 1.26Q107.48 1.83 106.75 0.37L106.75 0.37Q106.28-0.53 106.48-1.08 106.68-1.63 107.64-1.89ZM111.1-5.01L111.1-5.01Q111.1-5.05 110.96-5.18L110.96-5.18Q109.67-6.67 111.46-7.64L111.46-7.64Q112.63-8.23 113.52-7.4L113.52-7.4Q114.05-6.87 114.25-6.61L114.25-6.61Q115.15-5.28 113.69-4.42L113.69-4.42Q112.09-3.45 111.1-5.01ZM117.17-0.56L117.17-0.56 117.17-8.27Q117.17-10.09 119.03-10.09L119.03-10.09Q120.86-10.09 120.86-8.27L120.86-8.27 120.86-2.69 121.79-3.65Q122.55-4.45 123.58-4.12L123.58-4.12Q127.53-2.82 130.72-1.33L130.72-1.33Q131.62-0.93 131.63-0.4 131.65 0.13 130.95 0.9L130.95 0.9Q130.02 2.03 128.89 1.46L128.89 1.46Q124.98-0.46 120.86-1.83L120.86-1.83 120.86-0.46Q120.86 0.83 120.61 1.46 120.36 2.09 119.6 2.46L119.6 2.46Q118.87 2.82 117.92 2.96 116.97 3.09 116.09 2.79 115.21 2.49 114.98 1.73L114.98 1.73Q114.65 0.7 115.07 0.27 115.48-0.17 116.61-0.13L116.61-0.13 116.68-0.13Q117.17-0.13 117.17-0.56ZM127-5.18L127-5.18 126.27-4.45Q125.51-3.72 124.45-4.25L124.45-4.25Q122.69-5.11 123.91-6.47L123.91-6.47Q123.98-6.57 124.18-6.81 124.38-7.04 124.48-7.17L124.48-7.17Q125.34-8.5 126.77-7.84L126.77-7.84Q128.6-7.01 127.23-5.45L127.23-5.45Q127.2-5.38 127.12-5.31 127.04-5.25 127-5.18ZM124.51-25.33L124.51-25.33 131.58-25.33Q133.78-25.33 133.51-21.45L133.51-21.45Q133.04-15.44 132.08-14.28L132.08-14.28Q131.48-13.51 130.84-13.31 130.19-13.12 128.76-13.02L128.76-13.02Q126.97-13.08 126.6-14.51L126.6-14.51Q126.37-15.44 126.75-15.87 127.13-16.3 128.16-16.24L128.16-16.24Q128.79-16.24 129.09-16.63L129.09-16.63Q129.63-17.27 129.92-20.62L129.92-20.62Q130.06-22.05 129.23-22.05L129.23-22.05 128.36-22.05Q126.94-18.26 124.41-15.47L124.41-15.47Q123.38-14.41 122.09-15.24L122.09-15.24Q120.36-16.4 121.96-17.9L121.96-17.9Q123.62-19.69 124.58-22.05L124.58-22.05 122.79-22.05Q122.12-21.02 121.49-20.22L121.49-20.22Q120.96-19.59 120.2-19.54 119.43-19.49 118.77-19.96L118.77-19.96Q118.6-20.05 118.34-20.25L118.34-20.25 118.34-20.12 113.59-20.12Q113.95-19.96 114.48-19.67 115.02-19.39 115.73-18.99 116.44-18.59 116.84-18.39L116.84-18.39Q117.54-18.03 117.71-17.25 117.87-16.47 117.34-15.61L117.34-15.61 117.24-15.44 119.73-15.44Q120.79-15.44 121.59-14.81L121.59-14.81Q125.77-11.69 132.15-10.03L132.15-10.03Q134.84-9.4 133.44-7.34L133.44-7.34Q132.65-6.04 131.02-6.47L131.02-6.47Q127.7-7.5 124.4-9.13 121.09-10.76 119.07-12.52L119.07-12.52Q117.14-10.79 113.95-9.13 110.77-7.47 107.28-6.34L107.28-6.34Q105.49-5.81 104.72-7.17L104.72-7.17Q103.59-9.06 106.12-9.73L106.12-9.73Q112.59-11.79 116.48-14.94L116.48-14.94Q115.41-15.8 113.42-17.23L113.42-17.23 113.42-15.01Q113.42-13.15 111.6-13.15L111.6-13.15Q109.74-13.15 109.74-15.01L109.74-15.01 109.74-16.63Q108.11-14.78 106.91-13.75L106.91-13.75Q106.22-13.15 105.67-13.17 105.12-13.18 104.52-13.88L104.52-13.88Q103.79-14.71 103.93-15.29 104.06-15.87 104.99-16.47L104.99-16.47Q107.15-18.06 108.84-20.12L108.84-20.12 105.35-20.12Q103.86-20.12 103.86-21.62 103.86-23.11 105.35-23.11L105.35-23.11 109.74-23.11 109.74-24.77Q108.51-24.67 105.95-24.54L105.95-24.54Q104.72-24.5 104.39-25.63L104.39-25.63Q103.93-27.09 105.65-27.19L105.65-27.19Q111.83-27.69 115.15-28.52L115.15-28.52Q116.04-28.75 116.84-27.86L116.84-27.86Q118.24-26.23 116.31-25.77L116.31-25.77Q115.08-25.5 113.42-25.23L113.42-25.23 113.42-23.11 117.27-23.11Q117.74-23.11 118.04-22.83 118.34-22.54 118.34-22.08L118.34-22.08 118.34-21.98Q120.29-24.07 121.49-27.16L121.49-27.16Q121.99-28.82 123.65-28.46L123.65-28.46Q125.47-28.12 124.88-26.3L124.88-26.3Q124.68-25.73 124.51-25.33ZM157.05-2.29L160.34-2.29 160.34-5.64 157.05-5.64 157.05-2.29ZM157.05-18.86L157.05-15.71 160.34-15.71 160.34-18.86 157.05-18.86ZM157.05-12.32L157.05-9.03 160.34-9.03 160.34-12.32 157.05-12.32ZM139.88-27.16L139.88-27.16 149.88-27.16Q151.74-27.16 151.74-25.3 151.74-23.44 149.88-23.44L149.88-23.44 149.61-23.44 149.61-16.97 150.21-16.97Q153.37-20.75 155.22-26.79L155.22-26.79Q155.79-28.75 157.68-28.32L157.68-28.32Q159.64-27.89 159.04-25.9L159.04-25.9Q158.64-24.74 157.78-22.48L157.78-22.48 160.6-22.48Q161.5-24.9 161.9-26.6L161.9-26.6Q162.36-28.46 164.29-28.02L164.29-28.02Q166.31-27.56 165.55-25.5L165.55-25.5Q165.35-24.87 164.9-23.77 164.46-22.68 164.39-22.48L164.39-22.48 166.51-22.48Q168.31-22.48 168.31-20.69L168.31-20.69Q168.31-18.86 166.51-18.86L166.51-18.86 164.06-18.86 164.06-15.71 166.08-15.71Q167.78-15.71 167.78-14.01 167.78-12.32 166.08-12.32L166.08-12.32 164.06-12.32 164.06-9.03 166.08-9.03Q167.78-9.03 167.78-7.34 167.78-5.64 166.08-5.64L166.08-5.64 164.06-5.64 164.06-2.29 166.81-2.29Q168.64-2.29 168.64-0.43L168.64-0.43Q168.64 1.39 166.81 1.39L166.81 1.39 157.05 1.39 157.05 1.46Q157.05 2.99 155.36 2.99L155.36 2.99Q153.33 2.99 153.33 1.16L153.33 1.16 153.33-14.28 153.3-14.24Q153.2-14.01 153.13-14.08L153.13-14.08 152.04-15.17 152.04-14.04Q152.04-13.12 151.14-13.12L151.14-13.12 149.61-13.12 149.61-1.59Q149.61-0.07 149.3 0.81 148.98 1.69 148.15 2.16L148.15 2.16Q147.36 2.66 146.21 2.84 145.06 3.02 143.99 2.66 142.91 2.29 142.61 1.29L142.61 1.29Q142.24 0.07 142.84-0.48 143.44-1.03 144.87-1L144.87-1 145.26-1Q145.89-1 145.89-1.59L145.89-1.59 145.89-9.4Q143.67-5.08 140.68-1.49L140.68-1.49Q139.82-0.56 139.2-0.61 138.59-0.66 137.89-1.73L137.89-1.73Q137.29-2.66 137.38-3.29 137.46-3.92 138.26-4.68L138.26-4.68Q141.48-8 143.9-13.12L143.9-13.12 141.25-13.12 141.18-12.68Q140.95-11.19 139.32-11.29L139.32-11.29Q138.36-11.36 138.01-11.7 137.66-12.05 137.79-12.92L137.79-12.92Q138.49-16.97 138.92-20.79L138.92-20.79Q139.12-22.45 140.78-22.28L140.78-22.28Q142.51-22.15 142.31-20.45L142.31-20.45 141.81-16.97 145.89-16.97 145.89-23.44 139.88-23.44Q137.99-23.44 137.99-25.3 137.99-27.16 139.88-27.16Z" transform="translate(-1.283239483833313, 28.790000915527344)"></path></g> <!----> <!----> <!----> <!----> <!----> <!----> <!----></g></g> <g data-gra="path-slogan" fill-rule="" class="tp-slogan iconsvg-slogansvg" fill="#444444" transform="translate(29.9683837890625,36.789302825927734)"><!----> <!----> <g transform="scale(1, 1)"><g transform="scale(1)"><path d="M1.89-4.64L6.02-4.64L6.02-7.86L7.09-7.86L7.09 0L6.02 0L6.02-3.65L1.89-3.65L1.89 0L0.82 0L0.82-7.86L1.89-7.86L1.89-4.64ZM13.92 0L13.15-2.28L9.97-2.28L9.15 0L8.08 0L11.04-7.86L12.25-7.86L15.08 0L13.92 0ZM11.56-6.70L10.31-3.22L12.76-3.22L11.60-6.70L11.56-6.70ZM17.32-7.86L21.27-1.50L21.27-7.86L22.30-7.86L22.30 0L21.10 0L17.10-6.36L17.06-6.36L17.06 0L16.03 0L16.03-7.86L17.32-7.86ZM29.82-3.31L27.41-3.31L27.41-4.21L30.85-4.21L30.85 0L30.16 0L29.91-0.99Q29.00 0.09 27.33 0.13L27.33 0.13Q25.74 0.13 24.88-0.69L24.88-0.69Q23.59-1.89 23.63-4.00L23.63-4.00Q23.93-7.91 27.37-8.08L27.37-8.08Q30.29-7.91 30.72-5.50L30.72-5.50L29.69-5.50Q29.26-7.13 27.33-7.18L27.33-7.18Q24.88-7.00 24.75-3.95L24.75-3.95Q24.75-0.69 27.37-0.69L27.37-0.69Q28.32-0.69 29.00-1.20L29.00-1.20Q29.86-1.89 29.82-3.31L29.82-3.31ZM33.26-0.95L38.11-0.95L38.11 0L31.93 0L31.93-0.86L36.74-6.96L32.27-6.96L32.27-7.86L38.11-7.86L38.11-6.96L33.26-0.95ZM40.22-4.64L44.34-4.64L44.34-7.86L45.42-7.86L45.42 0L44.34 0L44.34-3.65L40.22-3.65L40.22 0L39.14 0L39.14-7.86L40.22-7.86L40.22-4.64ZM53.28-3.91L53.28-3.91Q53.11-7.00 50.53-7.18L50.53-7.18Q47.91-7.05 47.78-3.91L47.78-3.91Q47.91-0.86 50.53-0.73L50.53-0.73Q53.11-0.90 53.28-3.91ZM54.36-3.91L54.36-3.91Q54.10 0 50.53 0.13L50.53 0.13Q46.92 0 46.66-3.91L46.66-3.91Q46.88-7.99 50.53-8.08L50.53-8.08Q54.10-7.95 54.36-3.91ZM60.80-2.92L60.80-7.86L61.88-7.86L61.88-2.79Q61.75 0.04 58.65 0.13L58.65 0.13Q55.77 0.04 55.64-2.62L55.64-2.62L55.64-7.86L56.72-7.86L56.72-2.92Q56.76-0.77 58.70-0.73L58.70-0.73Q60.80-0.77 60.80-2.92L60.80-2.92ZM70.34-3.39L67.76-3.39L67.76 0L66.69 0L66.69-7.86L70.34-7.86Q72.96-7.86 72.96-5.76L72.96-5.76Q72.96-4.47 71.84-3.87L71.84-3.87Q72.79-3.61 72.79-2.36L72.79-2.36L72.88-0.95Q72.83-0.34 73.26-0.17L73.26-0.17L73.26 0L71.93 0Q71.80-0.56 71.76-1.98L71.76-1.98Q71.80-3.39 70.34-3.39L70.34-3.39ZM70.43-7.00L67.76-7.00L67.76-4.30L70.25-4.30Q71.84-4.30 71.84-5.67L71.84-5.67Q71.84-7.00 70.43-7.00L70.43-7.00ZM79.66-2.92L79.66-7.86L80.74-7.86L80.74-2.79Q80.61 0.04 77.52 0.13L77.52 0.13Q74.64 0.04 74.51-2.62L74.51-2.62L74.51-7.86L75.58-7.86L75.58-2.92Q75.63-0.77 77.56-0.73L77.56-0.73Q79.66-0.77 79.66-2.92L79.66-2.92ZM82.54-7.86L83.62-7.86L83.62 0L82.54 0L82.54-7.86ZM85.42-7.86L86.50-7.86L86.50-0.95L90.49-0.95L90.49 0L85.42 0L85.42-7.86ZM91.70-7.86L92.77-7.86L92.77 0L91.70 0L91.70-7.86ZM100.93-7.86L97.97-3.18L97.97 0L96.89 0L96.89-3.18L93.93-7.86L95.18-7.86L97.41-4.08L99.69-7.86L100.93-7.86ZM107.08 0L106.30-2.28L103.13-2.28L102.31 0L101.23 0L104.20-7.86L105.40-7.86L108.24 0L107.08 0ZM104.71-6.70L103.47-3.22L105.92-3.22L104.76-6.70L104.71-6.70Z" transform="translate(-0.81640625, 8.078125)"></path></g></g></g></g></g><defs v-gra="od"></defs></svg>